<svg xmlns="http://www.w3.org/2000/svg" xmlns:xlink="http://www.w3.org/1999/xlink" width="80" zoomAndPan="magnify" viewBox="0 0 60 32.249999" height="43" preserveAspectRatio="xMidYMid meet" version="1.0"><defs><clipPath id="7f62ebe39c"><path d="M 24.3125 4.566406 L 29.808594 4.566406 L 29.808594 10.0625 L 24.3125 10.0625 Z M 24.3125 4.566406 " clip-rule="nonzero"/></clipPath><clipPath id="64e48f98be"><path d="M 27.0625 4.566406 C 25.542969 4.566406 24.3125 5.796875 24.3125 7.3125 C 24.3125 8.832031 25.542969 10.0625 27.0625 10.0625 C 28.578125 10.0625 29.808594 8.832031 29.808594 7.3125 C 29.808594 5.796875 28.578125 4.566406 27.0625 4.566406 Z M 27.0625 4.566406 " clip-rule="nonzero"/></clipPath><clipPath id="3aba515c26"><path d="M 1.03125 0 L 58.933594 0 L 58.933594 30.78125 L 1.03125 30.78125 Z M 1.03125 0 " clip-rule="nonzero"/></clipPath></defs><g clip-path="url(#7f62ebe39c)"><g clip-path="url(#64e48f98be)"><path fill="#f25549" d="M 24.3125 4.566406 L 29.808594 4.566406 L 29.808594 10.0625 L 24.3125 10.0625 Z M 24.3125 4.566406 " fill-opacity="1" fill-rule="nonzero"/></g></g><g clip-path="url(#3aba515c26)"><path fill="#000000" d="M 31.898438 26.90625 L 35.757812 26.90625 L 35.757812 23.0625 L 39.617188 23.0625 L 39.617188 19.21875 L 43.476562 19.21875 L 43.476562 15.375 L 47.335938 15.375 L 47.335938 11.53125 L 51.199219 11.53125 L 51.199219 7.683594 L 55.058594 7.683594 L 55.058594 3.839844 L 58.917969 3.839844 L 58.917969 -0.00390625 L 1.015625 -0.00390625 L 1.015625 3.839844 L 4.875 3.839844 L 4.875 7.683594 L 8.738281 7.683594 L 8.738281 11.53125 L 12.597656 11.53125 L 12.597656 15.375 L 16.457031 15.375 L 16.457031 19.21875 L 20.316406 19.21875 L 20.316406 23.0625 L 24.175781 23.0625 L 24.175781 26.90625 L 28.039062 26.90625 L 28.039062 30.75 L 31.898438 30.75 Z M 31.898438 26.90625 " fill-opacity="1" fill-rule="nonzero"/></g></svg>