<svg xmlns="http://www.w3.org/2000/svg" xmlns:xlink="http://www.w3.org/1999/xlink" width="341" zoomAndPan="magnify" viewBox="0 0 255.75 113.999999" height="152" preserveAspectRatio="xMidYMid meet" version="1.0"><defs><clipPath id="3d909e09d2"><path d="M 46.101562 78.023438 L 51.71875 78.023438 L 51.71875 83.644531 L 46.101562 83.644531 Z M 46.101562 78.023438 " clip-rule="nonzero"/></clipPath><clipPath id="a141e58cce"><path d="M 48.910156 78.023438 C 47.359375 78.023438 46.101562 79.28125 46.101562 80.832031 C 46.101562 82.386719 47.359375 83.644531 48.910156 83.644531 C 50.460938 83.644531 51.71875 82.386719 51.71875 80.832031 C 51.71875 79.28125 50.460938 78.023438 48.910156 78.023438 Z M 48.910156 78.023438 " clip-rule="nonzero"/></clipPath><clipPath id="becdd59fa9"><path d="M 1 23 L 184 23 L 184 113.945312 L 1 113.945312 Z M 1 23 " clip-rule="nonzero"/></clipPath></defs><g clip-path="url(#3d909e09d2)"><g clip-path="url(#a141e58cce)"><path fill="#f25549" d="M 46.101562 78.023438 L 51.71875 78.023438 L 51.71875 83.644531 L 46.101562 83.644531 Z M 46.101562 78.023438 " fill-opacity="1" fill-rule="nonzero"/></g></g><g clip-path="url(#becdd59fa9)"><path fill="#000000" d="M 18.078125 27.359375 C 18.078125 27.359375 50.378906 78.984375 86.144531 93.078125 C 92.738281 95.675781 102.636719 94.824219 113.648438 92.636719 C 132.46875 88.902344 154.136719 80.539062 170.25 72.183594 C 174.785156 69.832031 180.375 71.613281 182.722656 76.15625 C 185.070312 80.703125 183.292969 86.300781 178.757812 88.652344 C 161.253906 97.726562 137.695312 106.765625 117.246094 110.824219 C 102.082031 113.835938 88.453125 113.910156 79.367188 110.328125 C 39.277344 94.53125 2.457031 37.3125 2.457031 37.3125 C -0.285156 32.992188 0.988281 27.257812 5.300781 24.511719 C 9.609375 21.765625 15.335938 23.042969 18.078125 27.359375 Z M 18.078125 27.359375 " fill-opacity="1" fill-rule="evenodd"/></g><path fill="#ffffff" d="M 218.679688 37.648438 C 215.957031 35.542969 214.871094 33.089844 214.449219 27.441406 C 214.023438 21.789062 213.640625 11.136719 207.363281 6.191406 C 201.082031 1.25 196.023438 1.566406 192.273438 3.910156 C 188.519531 6.253906 190.15625 12.542969 191.800781 21.773438 C 193.441406 31 189.097656 37.996094 184.183594 45.164062 C 179.269531 52.332031 176.976562 56.105469 176.25 60.28125 C 176.25 60.28125 169.972656 61.789062 168.394531 67.558594 C 166.816406 73.324219 171.78125 87.015625 175.742188 92.707031 C 179.703125 98.398438 186.414062 95.195312 186.414062 95.195312 C 186.414062 95.195312 192.625 101.769531 201.609375 103.472656 C 210.589844 105.179688 219.554688 100.296875 226.4375 100.257812 C 226.4375 100.257812 232.355469 102.59375 240.488281 99.195312 C 248.300781 95.925781 255.203125 90.253906 248.363281 80.253906 C 248.363281 80.253906 254.023438 77.203125 253.960938 70.542969 C 253.898438 63.882812 248.292969 60.929688 248.292969 60.929688 C 248.292969 60.929688 252.382812 55.289062 250.40625 48.71875 C 248.425781 42.152344 240.167969 39.410156 232.832031 39.347656 C 225.496094 39.28125 221.402344 39.75 218.679688 37.648438 Z M 218.679688 37.648438 " fill-opacity="1" fill-rule="evenodd"/><path fill="#000000" d="M 219.308594 36.832031 C 220.523438 37.769531 222.058594 38.097656 224.09375 38.234375 C 226.359375 38.386719 229.195312 38.285156 232.839844 38.316406 C 237.429688 38.355469 242.363281 39.421875 246.023438 41.730469 C 248.578125 43.34375 250.523438 45.554688 251.386719 48.421875 C 253.019531 53.832031 250.816406 58.65625 249.699219 60.609375 C 251.421875 61.84375 254.9375 65.03125 254.988281 70.535156 C 255.039062 76.039062 251.515625 79.289062 249.785156 80.550781 C 252.246094 84.507812 252.628906 87.832031 251.78125 90.601562 C 250.4375 94.972656 245.871094 98.058594 240.882812 100.144531 C 233.207031 103.355469 227.398438 101.679688 226.261719 101.292969 C 222.933594 101.351562 219.117188 102.546875 215.050781 103.523438 C 210.6875 104.566406 206.050781 105.367188 201.417969 104.488281 C 193.628906 103.007812 187.851562 97.996094 186.167969 96.398438 C 184.214844 97.089844 178.527344 98.515625 174.898438 93.296875 C 172.46875 89.808594 169.664062 83.378906 168.164062 77.519531 C 167.128906 73.488281 166.738281 69.71875 167.402344 67.285156 C 168.808594 62.148438 173.601562 60.078125 175.359375 59.480469 C 176.210938 55.433594 178.542969 51.574219 183.335938 44.582031 C 188.097656 37.640625 192.378906 30.890625 190.789062 21.953125 C 189.785156 16.316406 188.800781 11.753906 188.984375 8.492188 C 189.128906 5.964844 189.953125 4.144531 191.726562 3.035156 C 195.769531 0.511719 201.234375 0.0585938 207.996094 5.382812 C 210.667969 7.484375 212.355469 10.546875 213.425781 13.863281 C 214.960938 18.628906 215.214844 23.910156 215.472656 27.363281 C 215.863281 32.585938 216.789062 34.882812 219.308594 36.832031 Z M 177.265625 60.445312 C 177.976562 56.378906 180.25 52.722656 185.03125 45.746094 C 190.101562 38.351562 194.507812 31.113281 192.8125 21.59375 C 191.84375 16.15625 190.859375 11.757812 191.039062 8.609375 C 191.136719 6.863281 191.589844 5.550781 192.816406 4.785156 C 196.28125 2.621094 200.929688 2.4375 206.726562 7.003906 C 209.078125 8.855469 210.527344 11.578125 211.46875 14.496094 C 212.949219 19.089844 213.171875 24.1875 213.421875 27.515625 C 213.878906 33.59375 215.121094 36.199219 218.050781 38.460938 C 219.277344 39.410156 220.738281 39.914062 222.589844 40.15625 C 225.09375 40.488281 228.363281 40.335938 232.820312 40.375 C 236.34375 40.40625 240.089844 41.074219 243.191406 42.527344 C 246.144531 43.914062 248.515625 46.015625 249.417969 49.019531 C 251.160156 54.789062 247.832031 59.789062 247.488281 60.28125 C 245.660156 62.292969 242.65625 63.738281 240.53125 64.3125 C 231.335938 66.800781 222.480469 63.90625 222.347656 63.859375 L 222.320312 63.851562 L 222.3125 63.851562 C 222.296875 63.84375 222.28125 63.839844 222.265625 63.835938 C 222.007812 63.769531 215.617188 62.078125 216.089844 55.949219 C 216.519531 50.394531 222.0625 46.546875 232.746094 46.195312 C 233.3125 46.179688 233.757812 45.699219 233.738281 45.132812 C 233.71875 44.566406 233.246094 44.117188 232.675781 44.136719 C 225.042969 44.386719 219.84375 46.421875 216.910156 49.464844 C 217.242188 47.070312 217.273438 45.546875 217.273438 45.546875 C 217.285156 44.976562 216.835938 44.507812 216.265625 44.496094 C 215.699219 44.484375 215.230469 44.933594 215.21875 45.503906 C 215.21875 45.503906 214.917969 61.742188 204.761719 70.742188 C 204.335938 71.121094 204.296875 71.769531 204.671875 72.195312 C 205.046875 72.621094 205.699219 72.664062 206.125 72.285156 C 210.21875 68.65625 212.8125 63.921875 214.453125 59.445312 C 215.441406 62.398438 217.859375 64.105469 219.648438 65 C 217.507812 66.472656 214.46875 69.480469 214.964844 74.511719 C 215.335938 78.277344 217.328125 80.761719 220.457031 82.34375 C 221.011719 82.625 221.601562 82.871094 222.226562 83.09375 C 218.628906 85.597656 217.09375 90.085938 218.542969 93.976562 C 219.542969 96.65625 221.339844 98.441406 222.933594 99.570312 C 220.328125 100.015625 217.511719 100.8125 214.570312 101.519531 C 210.484375 102.496094 206.144531 103.285156 201.796875 102.460938 C 193.371094 100.863281 187.472656 94.8125 187.171875 94.5 C 184.132812 91.019531 181.992188 87.125 180.484375 83.246094 C 180.28125 82.714844 179.683594 82.453125 179.152344 82.660156 C 178.625 82.863281 178.363281 83.460938 178.570312 83.992188 C 179.996094 87.667969 181.96875 91.355469 184.679688 94.726562 C 182.742188 95.261719 179.054688 95.664062 176.585938 92.117188 C 174.261719 88.777344 171.589844 82.617188 170.152344 77.007812 C 169.226562 73.390625 168.789062 70.011719 169.386719 67.828125 C 170.355469 64.285156 173.300781 62.53125 175.082031 61.777344 C 174.96875 63.617188 174.929688 66.820312 175.601562 70.445312 C 175.703125 71.003906 176.242188 71.371094 176.800781 71.269531 C 177.359375 71.164062 177.726562 70.625 177.625 70.066406 C 176.671875 64.9375 177.230469 60.703125 177.265625 60.445312 Z M 248.050781 81.65625 C 250.09375 84.941406 250.523438 87.683594 249.8125 89.996094 C 248.632812 93.84375 244.480469 96.40625 240.089844 98.242188 C 232.503906 101.417969 226.957031 99.355469 226.816406 99.304688 C 226.796875 99.296875 226.777344 99.289062 226.757812 99.28125 L 226.738281 99.277344 C 226.738281 99.277344 222.1875 97.863281 220.472656 93.257812 C 219.132812 89.664062 221.117188 85.472656 225.085938 83.882812 C 227.132812 84.3125 229.425781 84.542969 231.894531 84.621094 C 240.953125 84.917969 246.089844 82.734375 248.050781 81.65625 Z M 248.449219 62.242188 C 249.808594 63.191406 252.886719 65.859375 252.929688 70.554688 C 252.984375 76.445312 248.105469 79.21875 247.886719 79.34375 C 247.84375 79.363281 247.804688 79.386719 247.769531 79.414062 L 247.746094 79.433594 C 247.714844 79.453125 242.960938 82.925781 231.960938 82.5625 C 227.753906 82.425781 224.078125 81.863281 221.382812 80.503906 C 218.902344 79.25 217.304688 77.292969 217.011719 74.3125 C 216.492188 69.011719 220.867188 66.523438 222.089844 65.933594 C 223.972656 66.488281 232.378906 68.652344 241.066406 66.300781 C 243.289062 65.699219 246.34375 64.246094 248.449219 62.242188 Z M 248.449219 62.242188 " fill-opacity="1" fill-rule="evenodd"/></svg>