<svg xmlns="http://www.w3.org/2000/svg" xmlns:xlink="http://www.w3.org/1999/xlink" width="175" zoomAndPan="magnify" viewBox="0 0 131.25 99.749997" height="133" preserveAspectRatio="xMidYMid meet" version="1.0"><defs><clipPath id="3a2db0df85"><path d="M 45.03125 63.644531 L 50.625 63.644531 L 50.625 69.238281 L 45.03125 69.238281 Z M 45.03125 63.644531 " clip-rule="nonzero"/></clipPath><clipPath id="c07b653ebc"><path d="M 47.828125 63.644531 C 46.285156 63.644531 45.03125 64.898438 45.03125 66.441406 C 45.03125 67.984375 46.285156 69.238281 47.828125 69.238281 C 49.371094 69.238281 50.625 67.984375 50.625 66.441406 C 50.625 64.898438 49.371094 63.644531 47.828125 63.644531 Z M 47.828125 63.644531 " clip-rule="nonzero"/></clipPath></defs><g clip-path="url(#3a2db0df85)"><g clip-path="url(#c07b653ebc)"><path fill="#f25549" d="M 45.03125 63.644531 L 50.625 63.644531 L 50.625 69.238281 L 45.03125 69.238281 Z M 45.03125 63.644531 " fill-opacity="1" fill-rule="nonzero"/></g></g><path fill="#000000" d="M 115.84375 79.679688 C 123.496094 84.371094 127.550781 89.972656 129.523438 93.972656 C 130.226562 95.386719 129.644531 97.109375 128.230469 97.808594 C 126.804688 98.5 125.097656 97.917969 124.394531 96.503906 C 116.753906 81.015625 93.644531 77.847656 78.847656 84.917969 C 73.988281 87.230469 70.054688 90.507812 67.535156 94.390625 C 66.4375 96.132812 63.859375 96.1875 62.710938 94.421875 C 53.523438 80.25 31.171875 78.078125 17.054688 85.578125 C 11.964844 88.273438 8.019531 92.078125 5.839844 96.503906 C 5.136719 97.917969 3.414062 98.511719 2 97.808594 C 0.585938 97.109375 0.0078125 95.386719 0.707031 93.972656 C 2.691406 89.9375 5.785156 86.355469 9.695312 83.449219 C 7.84375 79.898438 6.34375 75.953125 5.257812 71.710938 C 3.976562 66.710938 3.273438 61.351562 3.273438 55.804688 C 3.273438 36.675781 14.027344 8.765625 37.027344 8.765625 C 46.53125 8.765625 55.78125 14.980469 61.898438 23.726562 C 72.992188 3.863281 96.933594 0.738281 111.054688 21.4375 C 112.46875 23.519531 127.003906 47.941406 115.84375 79.679688 " fill-opacity="1" fill-rule="nonzero"/><path fill="#ffffff" d="M 13.785156 33.011719 C 13.710938 33.527344 13.488281 34.011719 13.171875 34.40625 C 10.597656 40.640625 9.105469 47.964844 9.105469 55.804688 C 9.105469 60.933594 9.730469 65.8125 10.882812 70.292969 C 11.8125 73.921875 13.085938 77.3125 14.652344 80.402344 C 19.945312 77.628906 26.226562 75.90625 32.992188 75.621094 L 33.1875 75.621094 L 33.386719 75.613281 L 33.539062 75.601562 L 33.976562 75.601562 L 34.175781 75.589844 L 34.769531 75.589844 L 34.964844 75.578125 L 35.195312 75.589844 L 35.898438 75.589844 L 35.941406 75.601562 L 36.355469 75.601562 L 36.585938 75.613281 L 36.675781 75.613281 C 35.984375 72.222656 35.601562 68.421875 35.601562 64.410156 C 35.601562 50.144531 40.46875 38.59375 46.476562 38.59375 C 52.492188 38.59375 57.359375 50.144531 57.359375 64.410156 C 57.359375 70.394531 56.503906 75.90625 55.058594 80.292969 C 56.265625 80.917969 57.425781 81.597656 58.535156 82.332031 C 59.167969 81.222656 59.761719 80.074219 60.308594 78.878906 L 60.308594 78.867188 L 60.320312 78.867188 C 60.34375 78.789062 60.386719 78.714844 60.417969 78.636719 C 61.425781 76.410156 62.292969 74.042969 63.007812 71.542969 C 64.046875 67.839844 64.738281 63.859375 65 59.695312 L 65 59.683594 L 65.035156 59.167969 L 65.035156 59.113281 L 65.054688 58.730469 L 65.054688 58.652344 L 65.066406 58.53125 L 65.066406 58.335938 L 65.078125 58.148438 L 65.078125 58.136719 L 65.089844 57.953125 L 65.089844 57.753906 L 65.101562 57.621094 L 65.101562 57.359375 L 65.109375 57.171875 L 65.109375 56.777344 L 65.121094 56.582031 L 65.121094 55.167969 L 65.109375 54.816406 L 65.109375 54.53125 L 65.101562 54.324219 L 65.101562 54.113281 L 65.089844 53.699219 L 65.089844 53.632812 L 65.078125 53.488281 L 65.066406 53.09375 L 65.066406 53.074219 C 64.847656 48.085938 64.015625 43.351562 62.699219 39.007812 L 62.675781 38.953125 L 62.621094 38.769531 L 62.566406 38.59375 L 62.558594 38.539062 L 62.511719 38.40625 L 62.445312 38.21875 C 61.679688 35.828125 60.746094 33.5625 59.683594 31.421875 C 59.652344 31.355469 59.628906 31.292969 59.597656 31.226562 C 58.6875 29.4375 57.691406 27.761719 56.605469 26.207031 C 51.550781 18.980469 44.65625 14.507812 37.113281 14.507812 C 29.582031 14.507812 22.675781 18.980469 17.621094 26.207031 C 16.1875 28.265625 14.894531 30.546875 13.785156 33.011719 " fill-opacity="1" fill-rule="nonzero"/><path fill="#ffffff" d="M 65.417969 30.117188 C 68.652344 37.078125 70.382812 44.753906 70.777344 52.394531 L 70.789062 52.625 L 70.800781 53.050781 L 70.8125 53.074219 L 70.8125 53.304688 L 70.820312 53.425781 L 70.820312 53.523438 L 70.832031 53.753906 L 70.832031 54.003906 L 70.84375 54.203125 L 70.84375 54.433594 L 70.855469 54.609375 L 70.855469 55.34375 L 70.867188 55.574219 L 70.867188 56.089844 L 70.855469 56.230469 L 70.855469 57.074219 L 70.84375 57.226562 L 70.84375 57.503906 L 70.832031 57.710938 L 70.832031 57.785156 L 70.820312 57.929688 L 70.820312 58.136719 L 70.8125 58.347656 L 70.8125 58.355469 L 70.800781 58.554688 L 70.800781 58.640625 L 70.789062 58.773438 C 70.777344 59.191406 70.757812 59.605469 70.722656 60.035156 L 70.722656 60.046875 L 70.710938 60.242188 C 70.417969 64.738281 69.660156 69.054688 68.519531 73.089844 C 67.851562 75.445312 67.050781 77.714844 66.140625 79.863281 C 66.722656 80.984375 67.347656 82.046875 67.984375 83.042969 C 68.300781 83.539062 68.628906 84.019531 68.957031 84.492188 C 71.183594 82.648438 73.707031 81.058594 76.46875 79.734375 C 79.316406 78.386719 82.410156 77.332031 85.699219 76.621094 C 84.820312 72.894531 84.316406 68.597656 84.316406 64.023438 C 84.316406 49.761719 89.195312 38.207031 95.203125 38.207031 C 101.210938 38.207031 106.085938 49.761719 106.085938 64.023438 C 106.085938 68.550781 105.59375 72.816406 104.726562 76.511719 C 106.472656 76.871094 108.171875 77.332031 109.816406 77.878906 C 111.207031 74.867188 112.347656 71.542969 113.179688 68.003906 C 114.175781 63.71875 114.726562 59.101562 114.726562 54.277344 C 114.726562 42.671875 111.546875 32.203125 106.40625 24.671875 C 101.496094 17.457031 94.785156 12.984375 87.484375 12.984375 C 77.191406 12.984375 69.59375 21.511719 65.417969 30.117188 " fill-opacity="1" fill-rule="nonzero"/></svg>