<svg xmlns="http://www.w3.org/2000/svg" xmlns:xlink="http://www.w3.org/1999/xlink" width="289" zoomAndPan="magnify" viewBox="0 0 216.75 259.499997" height="346" preserveAspectRatio="xMidYMid meet" version="1.0"><defs><clipPath id="8e276c71ad"><path d="M 55.945312 50.121094 L 61.5625 50.121094 L 61.5625 55.734375 L 55.945312 55.734375 Z M 55.945312 50.121094 " clip-rule="nonzero"/></clipPath><clipPath id="089823422d"><path d="M 58.753906 50.121094 C 57.203125 50.121094 55.945312 51.378906 55.945312 52.925781 C 55.945312 54.476562 57.203125 55.734375 58.753906 55.734375 C 60.304688 55.734375 61.5625 54.476562 61.5625 52.925781 C 61.5625 51.378906 60.304688 50.121094 58.753906 50.121094 Z M 58.753906 50.121094 " clip-rule="nonzero"/></clipPath></defs><g clip-path="url(#8e276c71ad)"><g clip-path="url(#089823422d)"><path fill="#f25549" d="M 55.945312 50.121094 L 61.5625 50.121094 L 61.5625 55.734375 L 55.945312 55.734375 Z M 55.945312 50.121094 " fill-opacity="1" fill-rule="nonzero"/></g></g><path fill="#ffffff" d="M 32.875 169.519531 C 37.460938 161.023438 53.472656 160.226562 63.917969 162.269531 C 74.363281 164.3125 81.035156 168.171875 81.632812 173.710938 C 82.152344 178.484375 78.648438 181.71875 78.648438 181.71875 C 83.253906 193.472656 85.640625 215.78125 85.640625 215.78125 C 89.371094 232.746094 89.621094 246.035156 88.542969 248.734375 C 87.46875 251.429688 65.035156 257.785156 45.589844 257.789062 C 26.144531 257.792969 9.964844 251.382812 6.757812 249.203125 C 3.546875 247.023438 0.0859375 237.320312 4.5 221.851562 C 8.910156 206.378906 24.421875 198.8125 24.421875 198.8125 C 28.363281 190.183594 34.644531 181.257812 34.644531 181.257812 C 31.554688 178.863281 30.699219 173.546875 32.875 169.519531 Z M 131.757812 160.394531 C 137.457031 161.484375 147.96875 164.632812 152.574219 169.988281 C 157.179688 175.34375 155.25 181.144531 151.523438 184.304688 C 151.523438 184.304688 154.21875 190.121094 161.042969 194.246094 C 161.042969 194.246094 177.222656 186.820312 193.835938 196.582031 C 210.449219 206.34375 214.4375 225.136719 212.523438 236.460938 C 210.613281 247.78125 207.804688 247.269531 203.371094 249.546875 C 198.941406 251.828125 176.386719 254.425781 159.136719 254.390625 C 141.886719 254.351562 129.175781 248.460938 112.617188 237.132812 C 96.058594 225.800781 97.730469 224.324219 98.078125 219.085938 C 98.429688 213.851562 103.785156 189.578125 111.390625 175.824219 C 111.390625 175.824219 108.011719 170.511719 111.390625 165.183594 C 115.324219 158.972656 123.441406 158.808594 131.757812 160.394531 Z M 131.757812 160.394531 " fill-opacity="1" fill-rule="evenodd"/><path fill="#000000" d="M 45.355469 166.71875 C 46.699219 100.261719 46.140625 14.03125 46.140625 14.03125 C 46.101562 7.886719 51.050781 2.867188 57.183594 2.824219 C 63.320312 2.785156 68.335938 7.742188 68.375 13.886719 C 68.375 13.886719 70.042969 100.484375 67.585938 167.167969 L 67.765625 161.941406 C 72.542969 163.183594 76.335938 164.878906 78.890625 166.972656 C 81.191406 168.859375 82.527344 171.078125 82.796875 173.585938 C 83.242188 177.664062 81.066406 180.746094 80.003906 181.980469 C 84.332031 193.617188 86.652344 214.285156 86.796875 215.589844 C 89.199219 226.527344 90.160156 235.945312 90.261719 242.027344 C 90.261719 242.035156 90.261719 242.046875 90.261719 242.058594 C 90.269531 242.613281 90.269531 243.144531 90.265625 243.644531 C 90.238281 246.386719 89.980469 248.292969 89.628906 249.167969 C 89.511719 249.460938 89.28125 249.800781 88.894531 250.140625 C 88.335938 250.625 87.351562 251.195312 85.996094 251.785156 C 79 254.828125 61.328125 258.957031 45.589844 258.960938 C 25.808594 258.964844 9.363281 252.390625 6.101562 250.171875 C 4.667969 249.203125 3.117188 246.925781 2.175781 243.390625 C 0.871094 238.503906 0.648438 231.085938 3.371094 221.53125 C 7.507812 207.035156 21.078125 199.257812 23.527344 197.957031 C 26.773438 190.957031 31.464844 183.839844 33.101562 181.433594 C 30.289062 178.488281 29.601562 173.121094 31.84375 168.960938 C 33.820312 165.308594 37.722656 162.921875 42.457031 161.582031 C 43.429688 161.304688 44.4375 161.074219 45.46875 160.882812 Z M 87.917969 244.046875 C 83.234375 246.453125 69.449219 252.398438 47.53125 252.5 C 24.957031 252.601562 10.734375 247.585938 5.253906 245.199219 C 5.890625 246.679688 6.644531 247.710938 7.410156 248.234375 C 10.566406 250.371094 26.476562 256.621094 45.589844 256.617188 C 59.0625 256.613281 73.984375 253.53125 82.089844 250.769531 C 84.101562 250.082031 85.679688 249.421875 86.683594 248.832031 C 87.03125 248.628906 87.414062 248.304688 87.476562 248.25 C 87.742188 247.539062 87.882812 246.089844 87.917969 244.046875 Z M 124.890625 158.398438 C 123.089844 158.339844 121.355469 158.429688 119.730469 158.710938 C 115.835938 159.386719 112.554688 161.15625 110.402344 164.554688 C 107.359375 169.355469 109.21875 174.144531 110.058594 175.824219 C 102.53125 189.820312 97.261719 213.785156 96.910156 219.011719 C 96.757812 221.304688 96.433594 222.9375 97.1875 224.867188 C 98.257812 227.605469 101.671875 231.058594 111.957031 238.097656 C 128.742188 249.585938 141.644531 255.519531 159.132812 255.558594 C 171.277344 255.589844 186.027344 254.3125 195.316406 252.761719 C 199.441406 252.074219 202.519531 251.304688 203.90625 250.589844 C 206.257812 249.382812 208.15625 248.871094 209.742188 247.203125 C 211.015625 245.863281 212.121094 243.769531 213.03125 239.898438 C 213.050781 239.84375 213.0625 239.789062 213.070312 239.730469 C 213.285156 238.808594 213.488281 237.789062 213.679688 236.65625 C 215.648438 224.992188 211.542969 205.628906 194.429688 195.570312 C 179.167969 186.601562 164.257812 191.695312 161.144531 192.933594 C 156.429688 189.929688 153.894531 186.136719 152.984375 184.554688 C 156.667969 180.921875 158.304688 174.851562 153.460938 169.222656 C 151.742188 167.222656 149.226562 165.511719 146.441406 164.089844 C 153.480469 143.359375 160.449219 122.867188 164.324219 106.117188 C 167.601562 91.96875 168.523438 80.09375 166.582031 72.128906 C 161.273438 50.3125 141.367188 7.960938 141.367188 7.960938 C 138.742188 2.402344 132.109375 0.0273438 126.5625 2.65625 C 121.019531 5.28125 118.644531 11.925781 121.269531 17.480469 C 121.269531 17.480469 140.019531 57.011719 144.984375 77.402344 C 146.339844 82.964844 144.953125 91.203125 142.667969 101.089844 C 138.839844 117.625 131.847656 137.921875 124.890625 158.398438 Z M 124.101562 160.722656 C 122.722656 160.710938 121.390625 160.800781 120.132812 161.019531 C 116.90625 161.582031 114.160156 163 112.378906 165.8125 C 109.441406 170.449219 112.296875 175.066406 112.375 175.195312 L 112.390625 175.222656 L 112.40625 175.246094 C 112.40625 175.246094 114.464844 178.675781 122.539062 181.570312 C 123.148438 181.789062 123.464844 182.457031 123.246094 183.070312 C 123.027344 183.675781 122.359375 183.996094 121.75 183.777344 C 116.082031 181.746094 113.074219 179.40625 111.601562 177.917969 C 104.742188 191.273438 99.894531 212.75 99.292969 218.636719 C 101.660156 220.925781 114.625 233.085938 130.019531 240.027344 C 132.558594 241.171875 135.023438 242.136719 137.449219 242.945312 C 138.0625 243.152344 138.394531 243.816406 138.1875 244.429688 C 137.984375 245.042969 137.320312 245.375 136.707031 245.171875 C 134.210938 244.335938 131.671875 243.339844 129.058594 242.164062 C 115.269531 235.949219 103.390625 225.640625 99.027344 221.609375 C 98.988281 222.417969 99.042969 223.183594 99.367188 224.011719 C 99.734375 224.957031 100.457031 225.976562 101.738281 227.265625 C 103.855469 229.390625 107.40625 232.144531 113.277344 236.164062 C 129.605469 247.335938 142.125 253.179688 159.136719 253.214844 C 171.148438 253.242188 185.742188 251.984375 194.929688 250.449219 C 198.722656 249.816406 201.5625 249.160156 202.839844 248.503906 C 204.917969 247.4375 206.644531 247.0625 208.046875 245.585938 C 208.816406 244.777344 209.472656 243.644531 210.058594 241.90625 C 204.046875 244.832031 194.308594 247.285156 181.039062 248.25 C 168.636719 249.152344 158.546875 249.613281 148.625 248.070312 C 147.988281 247.96875 147.546875 247.371094 147.648438 246.730469 C 147.746094 246.09375 148.347656 245.652344 148.984375 245.753906 C 158.746094 247.273438 168.667969 246.800781 180.867188 245.914062 C 195.257812 244.863281 205.363281 242.089844 210.886719 238.804688 C 211.054688 238.035156 211.214844 237.191406 211.371094 236.265625 C 213.226562 225.285156 209.355469 207.0625 193.242188 197.59375 C 177.28125 188.210938 161.730469 195.21875 161.53125 195.308594 L 161.488281 195.328125 L 161.472656 195.335938 C 161.472656 195.335938 154.03125 198.347656 147.164062 208.945312 C 146.8125 209.488281 146.089844 209.640625 145.546875 209.292969 C 145.003906 208.9375 144.851562 208.210938 145.203125 207.667969 C 150.378906 199.675781 155.898438 195.746094 158.714844 194.117188 C 154.53125 191.144531 152.128906 187.699219 151.085938 185.945312 C 149.292969 186.886719 145.386719 188.351562 139.089844 187.808594 C 138.445312 187.75 137.96875 187.183594 138.023438 186.539062 C 138.078125 185.894531 138.648438 185.414062 139.292969 185.472656 C 146.960938 186.136719 150.589844 183.539062 150.789062 183.394531 C 154.070312 180.597656 155.753906 175.476562 151.6875 170.753906 C 150.199219 169.023438 148.074219 167.539062 145.691406 166.292969 C 145.277344 167.515625 144.859375 168.742188 144.445312 169.964844 C 143.253906 173.484375 138.222656 174.210938 132.410156 172.238281 C 126.601562 170.261719 121.734375 167.703125 123.390625 162.8125 C 123.628906 162.117188 123.863281 161.417969 124.101562 160.722656 Z M 45.421875 163.277344 C 44.628906 163.4375 43.847656 163.621094 43.09375 163.835938 C 39.023438 164.988281 35.601562 166.9375 33.902344 170.078125 C 32.007812 173.589844 32.664062 178.242188 35.359375 180.328125 L 35.375 180.339844 C 35.375 180.339844 37.609375 182.070312 42.949219 183.035156 C 43.585938 183.152344 44.007812 183.761719 43.894531 184.394531 C 43.777344 185.035156 43.167969 185.457031 42.535156 185.34375 C 38.65625 184.640625 36.226562 183.550781 34.96875 182.851562 C 33.507812 185.003906 29.78125 190.660156 26.765625 196.640625 C 30.660156 195.390625 38.449219 193.738281 49.894531 195.21875 C 67.035156 197.441406 76.960938 206.636719 81.214844 211.589844 C 81.636719 212.078125 81.582031 212.820312 81.09375 213.242188 C 80.601562 213.664062 79.863281 213.609375 79.441406 213.117188 C 75.390625 208.402344 65.921875 199.660156 49.59375 197.546875 C 33.433594 195.453125 24.964844 199.847656 24.964844 199.847656 L 24.933594 199.863281 C 24.933594 199.863281 9.898438 207.1875 5.625 222.171875 C 3.167969 230.78125 3.195312 237.546875 4.277344 242.15625 C 6.914062 243.496094 21.546875 250.273438 47.519531 250.15625 C 71.132812 250.046875 85.027344 243.007812 87.90625 241.398438 C 87.75 235.410156 86.78125 226.417969 84.5 216.03125 C 84.488281 215.988281 84.484375 215.945312 84.476562 215.90625 C 84.476562 215.90625 82.308594 195.519531 78.09375 183.585938 C 76.15625 184.816406 72.0625 186.75 65.246094 186.988281 C 64.601562 187.011719 64.058594 186.503906 64.035156 185.859375 C 64.011719 185.210938 64.519531 184.667969 65.164062 184.644531 C 74.132812 184.332031 77.839844 180.875 77.839844 180.875 L 77.855469 180.859375 C 77.855469 180.859375 80.925781 178.019531 80.46875 173.835938 C 80.207031 171.390625 78.539062 169.359375 75.847656 167.671875 C 73.714844 166.332031 70.957031 165.226562 67.6875 164.339844 L 67.683594 164.421875 C 67.660156 165.078125 67.636719 165.730469 67.613281 166.386719 C 67.605469 166.515625 67.605469 166.644531 67.597656 166.777344 C 67.589844 167.039062 67.585938 167.300781 67.554688 167.558594 C 67.507812 168.015625 67.398438 168.464844 67.214844 168.886719 C 67.117188 169.109375 67 169.324219 66.863281 169.527344 C 66.769531 169.660156 66.667969 169.792969 66.558594 169.914062 C 65.996094 170.554688 65.242188 170.996094 64.457031 171.308594 C 64.339844 171.355469 64.21875 171.398438 64.101562 171.4375 C 63.929688 171.496094 63.753906 171.550781 63.582031 171.601562 C 63.363281 171.664062 63.144531 171.714844 62.925781 171.765625 C 62.640625 171.828125 62.351562 171.882812 62.0625 171.929688 C 61.679688 171.992188 61.289062 172.039062 60.902344 172.074219 C 60.398438 172.125 59.890625 172.15625 59.386719 172.175781 C 58.726562 172.199219 58.0625 172.203125 57.398438 172.195312 C 56.574219 172.179688 55.742188 172.148438 54.917969 172.085938 C 54.28125 172.039062 53.648438 171.976562 53.015625 171.890625 C 52.5 171.824219 51.988281 171.738281 51.480469 171.636719 C 51.078125 171.558594 50.679688 171.46875 50.285156 171.359375 C 49.988281 171.277344 49.691406 171.1875 49.398438 171.089844 C 49.171875 171.011719 48.949219 170.925781 48.726562 170.835938 C 48.570312 170.769531 48.417969 170.703125 48.265625 170.628906 C 48.140625 170.570312 48.019531 170.507812 47.898438 170.445312 C 47.164062 170.050781 46.476562 169.527344 46 168.832031 C 45.816406 168.5625 45.667969 168.269531 45.558594 167.957031 C 45.457031 167.65625 45.390625 167.339844 45.367188 167.023438 C 45.339844 166.660156 45.363281 166.296875 45.371094 165.9375 C 45.386719 165.15625 45.402344 164.371094 45.417969 163.585938 Z M 45.421875 163.277344 " fill-opacity="1" fill-rule="evenodd"/></svg>